<svg version="1.1" id="Layer_1" xmlns="http://www.w3.org/2000/svg" xmlns:xlink="http://www.w3.org/1999/xlink" x="0px" y="0px"
	 width="100%" viewBox="0 0 500 500" enable-background="new 0 0 500 500" xml:space="preserve">
<path fill="#6F3BFE" opacity="1.000000" stroke="none" 
	d="
M282.000000,501.000000 
	C188.000015,501.000000 94.500046,501.000000 1.000050,501.000000 
	C1.000033,334.333405 1.000033,167.666794 1.000017,1.000140 
	C167.666565,1.000093 334.333130,1.000093 500.999756,1.000046 
	C500.999847,167.666519 500.999847,334.333038 500.999939,500.999786 
	C428.166656,501.000000 355.333344,501.000000 282.000000,501.000000 
M397.998871,101.003098 
	C397.998871,101.003098 397.992706,101.156265 397.664978,100.715462 
	C397.383545,100.482796 397.102112,100.250130 396.960358,100.064156 
	C396.960358,100.064156 396.912506,100.203453 396.714020,99.538170 
	C395.746490,99.067528 394.778931,98.596893 393.943878,98.031891 
	C393.943878,98.031891 394.037567,98.164841 393.346100,97.680618 
	C391.885376,97.452827 390.424744,97.026848 388.963867,97.025940 
	C339.366699,96.995140 289.769348,96.959061 240.172638,97.116486 
	C237.039978,97.126427 233.912216,98.689766 230.573120,99.423561 
	C230.573120,99.423561 230.678894,99.213951 229.737305,99.112495 
	C224.491241,100.475266 219.245193,101.838036 213.896515,103.415070 
	C213.896515,103.415070 213.662170,103.375969 212.765549,103.208626 
	C209.101501,104.027580 205.188095,104.287209 201.827042,105.785728 
	C195.472626,108.618828 189.435608,112.163864 183.144714,115.258026 
	C183.144714,115.258026 183.302567,115.376358 182.680511,115.359978 
	C182.205261,115.716965 181.730011,116.073944 181.255981,116.351631 
	C181.255981,116.351631 181.329300,116.381897 180.583328,116.276947 
	C178.683090,117.534653 176.782867,118.792358 174.788696,120.229904 
	C174.788696,120.229904 174.585800,120.229965 173.857635,120.257507 
	C173.023682,120.995804 172.189743,121.734100 171.331848,122.392937 
	C171.331848,122.392937 171.413559,122.378510 170.891754,122.526009 
	C170.631317,122.769676 170.370895,123.013344 170.137421,123.168243 
	C170.137421,123.168243 170.224869,123.199249 169.552994,123.239746 
	C168.805801,123.966339 168.058609,124.692940 167.292908,125.332161 
	C167.292908,125.332161 167.381668,125.322151 166.725143,125.424011 
	C165.792969,126.242104 164.860794,127.060196 163.930222,127.950172 
	C163.930222,127.950172 163.869431,127.911774 163.220551,127.969986 
	C162.486557,128.662659 161.752563,129.355331 161.004120,129.996918 
	C161.004120,129.996918 161.048386,130.026337 160.310257,130.044830 
	C155.620056,131.222015 152.355774,134.036530 150.481262,138.447144 
	C150.481262,138.447144 150.504410,138.563675 149.995209,138.671936 
	C149.781143,138.933990 149.567062,139.196030 149.339951,139.241653 
	C149.339951,139.241653 149.402283,139.449310 148.683777,139.417664 
	C147.978302,140.426315 147.272827,141.434967 146.524796,142.405655 
	C146.524796,142.405655 146.502335,142.458084 146.005020,142.624771 
	C145.830307,142.916260 145.655594,143.207764 145.432144,143.088852 
	C145.432144,143.088852 145.508728,143.496124 144.814667,143.566696 
	C139.944000,147.281769 134.923111,150.870483 133.243515,157.210541 
	C133.243515,157.210541 133.325775,157.191696 132.845856,157.456100 
	C132.651474,157.759674 132.457092,158.063232 132.267212,158.247177 
	C132.267212,158.247177 132.386353,158.258926 131.713287,158.463882 
	C125.754837,163.471405 122.209709,169.958466 120.096123,177.661301 
	C120.096123,177.661301 119.870750,177.883041 119.242638,178.158875 
	C118.173355,180.454437 117.104080,182.750000 115.996803,185.006180 
	C115.996803,185.006180 116.046867,185.027115 115.461739,185.078995 
	C114.991432,186.406693 114.521118,187.734375 114.005150,189.017502 
	C114.005150,189.017502 114.068779,189.021942 113.489639,189.391785 
	C110.028557,198.639725 105.959435,207.713211 103.244476,217.175247 
	C98.829994,232.560333 99.515968,248.523270 100.187737,264.285919 
	C100.905678,281.132355 104.613152,297.468079 111.949791,312.790680 
	C113.330154,315.673645 115.346779,318.251923 117.006035,320.978149 
	C117.006035,320.978149 117.045654,320.927643 117.049194,321.685211 
	C120.161789,327.039581 123.274384,332.393921 126.300865,337.760284 
	C126.300865,337.760284 126.340164,337.682709 126.318222,338.363525 
	C127.018135,339.146301 127.718048,339.929047 128.308426,340.728760 
	C128.308426,340.728760 128.299515,340.618256 128.470139,341.144165 
	C128.722107,341.405457 128.974075,341.666718 129.608521,342.147217 
	C129.836166,342.355591 129.966904,342.613159 130.136185,343.512512 
	C130.557617,343.927704 130.979065,344.342926 131.327332,344.741516 
	C131.327332,344.741516 131.353500,344.671204 131.335556,345.411896 
	C133.362213,347.548615 135.388870,349.685303 137.761169,351.992584 
	C137.972900,352.162323 138.096878,352.381653 138.238525,353.293396 
	C138.839508,353.855469 139.440506,354.417542 139.997406,354.998932 
	C139.997406,354.998932 140.023972,354.958771 140.178635,355.554199 
	C140.791977,356.045837 141.405319,356.537476 142.439758,357.272125 
	C142.700836,357.489563 142.859848,357.765778 142.971085,358.809204 
	C146.283905,361.896057 149.596725,364.982880 152.980988,368.014313 
	C152.980988,368.014313 152.935043,368.092163 153.089371,368.752655 
	C155.792542,371.336548 158.197723,374.369873 161.265518,376.403809 
	C166.467697,379.852875 172.087997,382.671326 177.789169,385.788849 
	C177.789169,385.788849 177.949829,385.991821 178.238632,386.604126 
	C179.226456,387.000061 180.214294,387.395966 181.133453,387.816162 
	C181.133453,387.816162 181.115204,387.745667 181.495193,388.375336 
	C182.585098,388.766022 183.675003,389.156708 184.920441,389.506592 
	C184.920441,389.506592 184.973343,389.658447 185.341522,390.296265 
	C188.310089,391.494659 191.278641,392.693085 194.626236,393.925171 
	C194.626236,393.925171 194.921753,394.164886 195.293503,394.797516 
	C196.435089,395.063202 197.576660,395.328888 199.176529,395.600769 
	C199.480957,395.683319 199.737762,395.842590 200.241714,396.681091 
	C202.512924,397.218994 204.784149,397.756897 207.576538,398.338684 
	C208.043121,398.568695 208.509705,398.798737 209.496078,399.511292 
	C217.794235,401.641144 226.034180,405.287628 234.401733,405.608673 
	C257.018158,406.476379 279.689453,406.003723 302.336761,405.804138 
	C304.154175,405.788116 305.954132,403.788269 307.797668,402.813629 
	C307.797668,402.813629 307.692810,402.844086 308.206970,402.534302 
	C308.430969,402.207794 308.654999,401.881287 308.906036,401.279999 
	C308.906036,401.279999 309.118042,401.103119 309.798309,400.860596 
	C310.838318,397.356598 312.721130,393.866119 312.777557,390.346344 
	C313.077972,371.597443 312.760956,352.839050 313.019257,334.088898 
	C313.097656,328.397095 314.328247,322.721161 315.000000,317.000000 
	C315.000000,317.000000 315.037872,317.031525 315.874817,316.977173 
	C319.002502,316.631195 322.128906,315.999023 325.258057,315.985413 
	C346.400604,315.893219 367.543823,315.959167 388.686676,315.913605 
	C396.096985,315.897644 399.837646,312.890900 400.897736,305.563721 
	C401.436584,301.839386 400.948059,297.974182 401.037323,294.175323 
	C401.216736,286.540649 401.629486,278.908264 401.653107,271.274017 
	C401.674652,264.300690 401.244324,257.327240 401.132263,250.351944 
	C401.007294,242.570175 401.126160,234.782806 400.881592,227.005966 
	C400.828369,225.313751 399.683319,223.655853 398.618408,221.605225 
	C398.100891,221.390869 397.583405,221.176498 396.604553,220.818069 
	C396.301636,220.659439 396.100647,220.416458 395.714386,219.407455 
	C392.930145,218.596313 390.151428,217.103989 387.360840,217.081482 
	C364.386993,216.896027 341.410431,216.912674 318.436401,217.091171 
	C315.976807,217.110275 313.528259,218.555161 311.093811,219.120697 
	C311.093811,219.120697 311.311462,219.142960 310.824005,219.356659 
	C310.558502,219.586700 310.292969,219.816757 309.681030,220.648163 
	C308.419922,224.111847 306.120605,227.559570 306.067078,231.041824 
	C305.732941,252.774643 306.053101,274.517395 305.739197,296.250854 
	C305.691833,299.526794 303.462067,302.771240 301.607697,306.202057 
	C301.144684,306.647491 300.681671,307.092926 300.208832,307.401123 
	C300.208832,307.401123 300.346375,307.399750 299.467926,307.349030 
	C296.337006,307.566589 293.207367,307.949219 290.074951,307.973724 
	C274.836639,308.093048 259.597534,308.116577 243.606628,308.352722 
	C214.106766,303.803375 192.894119,276.911865 195.312988,247.130325 
	C197.154770,224.454193 213.801971,203.089920 234.559479,197.933060 
	C246.438660,195.160553 258.484619,194.871262 270.634705,194.932510 
	C309.698242,195.129471 348.763580,195.041092 387.827637,194.903793 
	C390.206879,194.895432 392.581299,193.506668 394.928009,192.905685 
	C394.928009,192.905685 394.783020,192.873413 395.404602,192.788025 
	C395.947968,192.219055 396.491302,191.650085 397.231262,190.600433 
	C397.510956,190.407532 397.790649,190.214645 398.651276,189.770660 
	C398.985718,189.050491 399.320160,188.330307 399.766785,187.835510 
	C399.766785,187.835510 399.539001,187.942795 400.126282,187.381683 
	C400.427704,182.017059 400.962097,176.653595 400.989227,171.287582 
	C401.092163,150.901932 401.068329,130.515305 400.973846,110.129570 
	C400.964386,108.086494 400.154480,106.047134 399.898956,104.059044 
	C399.898956,104.059044 399.843719,104.241249 399.732635,103.606003 
	C399.365540,103.090652 398.998444,102.575302 398.897736,102.074989 
	C398.897736,102.074989 398.880188,102.341232 398.618195,101.831749 
	C398.360687,101.553528 398.103210,101.275299 397.998871,101.003098 
z"/>
<path fill="#FEFEFF" opacity="1.000000" stroke="none" 
	d="
M174.585800,120.229965 
	C174.585800,120.229965 174.788696,120.229904 175.191284,120.091949 
	C177.505676,118.763290 179.417496,117.572594 181.329300,116.381897 
	C181.329300,116.381897 181.255981,116.351631 181.550797,116.347580 
	C182.331253,116.021141 182.816910,115.698746 183.302567,115.376358 
	C183.302567,115.376358 183.144714,115.258026 183.572632,115.267784 
	C193.887756,111.310349 203.774963,107.343163 213.662170,103.375969 
	C213.662170,103.375969 213.896515,103.415070 214.355820,103.306610 
	C220.103043,101.870087 225.390976,100.542023 230.678894,99.213951 
	C230.678894,99.213951 230.573120,99.423561 231.156525,99.476349 
	C238.202759,99.023537 244.662018,98.143295 251.129074,98.081657 
	C271.615082,97.886391 292.104034,97.971092 312.591797,97.995689 
	C339.740417,98.028275 366.888977,98.106331 394.037567,98.164841 
	C394.037567,98.164841 393.943878,98.031891 394.062134,98.336922 
	C395.091125,99.162453 396.001801,99.682953 396.912506,100.203453 
	C396.912506,100.203453 396.960358,100.064156 396.974548,100.328110 
	C397.323395,100.780128 397.658051,100.968201 397.992706,101.156265 
	C397.992706,101.156265 397.998871,101.003098 397.978333,101.301239 
	C398.265289,101.846664 398.572723,102.093948 398.880188,102.341232 
	C398.880188,102.341232 398.897736,102.074989 398.806854,102.395096 
	C399.091888,103.223885 399.467804,103.732567 399.843719,104.241257 
	C399.843719,104.241249 399.898956,104.059044 399.819702,104.506912 
	C399.794861,119.700439 399.914856,134.446243 399.884003,149.191711 
	C399.856995,162.108917 399.660583,175.025787 399.539001,187.942795 
	C399.539001,187.942795 399.766785,187.835510 399.462921,187.889420 
	C398.796143,188.636124 398.433228,189.328934 398.070312,190.021759 
	C397.790649,190.214645 397.510956,190.407532 396.849548,190.928223 
	C395.906219,191.795151 395.344635,192.334290 394.783020,192.873413 
	C394.783020,192.873413 394.928009,192.905685 394.523682,192.908508 
	C391.502411,193.236420 388.885895,193.840851 386.268494,193.844971 
	C341.845886,193.914902 297.421875,193.751678 253.001801,194.098236 
	C246.554718,194.148544 240.126053,196.561035 233.688873,197.880463 
	C213.801971,203.089920 197.154770,224.454193 195.312988,247.130325 
	C192.894119,276.911865 214.106766,303.803375 244.364746,308.526245 
	C262.190918,308.811707 279.259003,308.960815 296.327057,308.963715 
	C297.666748,308.963959 299.006592,307.945038 300.346375,307.399750 
	C300.346375,307.399750 300.208832,307.401123 300.545898,307.404846 
	C301.335907,306.949127 301.788879,306.489716 302.241882,306.030273 
	C303.462067,302.771240 305.691833,299.526794 305.739197,296.250854 
	C306.053101,274.517395 305.732941,252.774643 306.067078,231.041824 
	C306.120605,227.559570 308.419922,224.111847 310.128479,220.296127 
	C310.821106,219.677048 311.066284,219.410004 311.311462,219.142960 
	C311.311462,219.142960 311.093811,219.120697 311.508423,219.164734 
	C314.367279,218.871704 316.810608,218.250076 319.255981,218.241882 
	C341.792816,218.166458 364.330505,218.126007 386.866516,218.280899 
	C389.915527,218.301834 392.956787,219.458389 396.001617,220.089127 
	C396.100647,220.416458 396.301636,220.659439 396.915222,221.114090 
	C397.396484,221.692245 397.635406,221.893127 398.101044,222.411621 
	C398.768036,225.370499 399.705322,227.928314 399.718292,230.490814 
	C399.836029,253.759552 399.804535,277.029114 399.790649,300.298431 
	C399.784088,311.291779 396.891022,314.282715 386.026520,314.308441 
	C365.416718,314.357208 344.805450,314.205444 324.198120,314.434998 
	C321.135437,314.469147 318.090851,316.125610 315.037872,317.031525 
	C315.037872,317.031525 315.000000,317.000000 314.692200,317.144684 
	C313.205719,320.592377 311.056213,323.880798 311.006378,327.200775 
	C310.689911,348.270996 310.916382,369.348785 310.755096,390.422485 
	C310.727844,393.986664 309.689331,397.543091 309.118042,401.103119 
	C309.118042,401.103119 308.906036,401.279999 308.616821,401.553040 
	C308.115997,402.165405 307.904388,402.504730 307.692810,402.844086 
	C307.692810,402.844086 307.797668,402.813629 307.412872,402.876251 
	C304.699097,403.606628 302.378601,404.815002 300.039703,404.851715 
	C287.749176,405.044708 275.452240,405.069153 263.160950,404.901093 
	C253.045380,404.762817 242.881348,404.797424 232.838547,403.775238 
	C224.806641,402.957672 216.924759,400.666107 208.976288,399.028748 
	C208.509705,398.798737 208.043121,398.568695 206.989624,398.132874 
	C204.250809,397.310913 202.098892,396.694763 199.946976,396.078613 
	C199.737762,395.842590 199.480957,395.683319 198.680634,395.375977 
	C197.097076,394.822418 196.009415,394.493652 194.921753,394.164886 
	C194.921753,394.164886 194.626236,393.925171 194.200500,393.651001 
	C190.840942,392.137360 187.907150,390.897919 184.973343,389.658447 
	C184.973343,389.658447 184.920441,389.506592 184.612701,389.262939 
	C183.241699,388.594788 182.178452,388.170227 181.115204,387.745667 
	C181.115204,387.745667 181.133453,387.816162 180.983154,387.543030 
	C179.871841,386.843872 178.910828,386.417847 177.949829,385.991821 
	C177.949829,385.991821 177.789169,385.788849 177.447784,385.496429 
	C169.049271,379.500061 160.992157,373.796112 152.935043,368.092163 
	C152.935043,368.092163 152.980988,368.014313 152.804260,367.740967 
	C149.390625,364.345337 146.153717,361.223053 142.916794,358.100739 
	C142.859848,357.765778 142.700836,357.489563 142.131989,356.867676 
	C141.224136,355.961761 140.624054,355.460266 140.023972,354.958771 
	C140.023972,354.958771 139.997406,354.998932 139.945465,354.684753 
	C139.306732,353.797241 138.719940,353.223938 138.133133,352.650604 
	C138.096878,352.381653 137.972900,352.162323 137.456314,351.586487 
	C135.218811,349.010681 133.286148,346.840942 131.353485,344.671204 
	C131.353500,344.671204 131.327332,344.741516 131.288864,344.455444 
	C130.833847,343.752869 130.417282,343.336395 130.000732,342.919922 
	C129.966904,342.613159 129.836166,342.355591 129.355331,341.760803 
	C128.834595,341.122375 128.567047,340.870300 128.299515,340.618256 
	C128.299515,340.618256 128.308426,340.728760 128.286697,340.414368 
	C127.623367,339.294220 126.981766,338.488464 126.340164,337.682709 
	C126.340164,337.682709 126.300865,337.760284 126.272461,337.397766 
	C123.177925,331.666046 120.111794,326.296844 117.045654,320.927643 
	C117.045654,320.927643 117.006035,320.978149 116.999077,320.611084 
	C101.603035,290.117645 97.878113,258.137482 103.398598,225.200638 
	C105.461838,212.890747 110.426849,201.067230 114.068787,189.021942 
	C114.068779,189.021942 114.005150,189.017502 114.286896,188.835663 
	C115.061378,187.444931 115.554123,186.236023 116.046867,185.027115 
	C116.046867,185.027115 115.996803,185.006180 116.275276,184.816589 
	C117.659416,182.379028 118.765083,180.131027 119.870743,177.883041 
	C119.870750,177.883041 120.096123,177.661301 120.401413,177.302811 
	C124.599915,170.715851 128.493134,164.487396 132.386353,158.258926 
	C132.386353,158.258926 132.267212,158.247177 132.522552,158.193939 
	C132.960526,157.824356 133.143143,157.508026 133.325775,157.191696 
	C133.325775,157.191696 133.243515,157.210541 133.554657,157.106171 
	C137.746765,152.499908 141.627747,147.998016 145.508728,143.496124 
	C145.508728,143.496124 145.432144,143.088852 145.698090,143.199982 
	C146.143478,143.026764 146.322906,142.742432 146.502335,142.458084 
	C146.502335,142.458084 146.524796,142.405655 146.812195,142.289459 
	C147.867172,141.265274 148.634720,140.357300 149.402283,139.449310 
	C149.402283,139.449310 149.339951,139.241653 149.597717,139.288544 
	C150.071793,139.078186 150.288101,138.820923 150.504410,138.563675 
	C150.504410,138.563675 150.481262,138.447144 150.815887,138.339081 
	C154.449799,135.496109 157.749084,132.761230 161.048386,130.026337 
	C161.048386,130.026337 161.004120,129.996918 161.310745,129.956909 
	C162.368057,129.248535 163.118744,128.580154 163.869431,127.911774 
	C163.869431,127.911774 163.930222,127.950172 164.238892,127.856834 
	C165.492249,126.949707 166.436951,126.135925 167.381653,125.322144 
	C167.381668,125.322151 167.292908,125.332161 167.604477,125.285187 
	C168.685654,124.558556 169.455261,123.878899 170.224854,123.199249 
	C170.224869,123.199249 170.137421,123.168243 170.400162,123.165993 
	C170.913116,122.902000 171.163330,122.640251 171.413559,122.378510 
	C171.413559,122.378510 171.331848,122.392937 171.666733,122.342682 
	C172.863007,121.604942 173.724411,120.917458 174.585800,120.229965 
z"/>
<path fill="#7F5BE9" opacity="1.000000" stroke="none" 
	d="
M315.456360,317.004333 
	C318.090851,316.125610 321.135437,314.469147 324.198120,314.434998 
	C344.805450,314.205444 365.416718,314.357208 386.026520,314.308441 
	C396.891022,314.282715 399.784088,311.291779 399.790649,300.298431 
	C399.804535,277.029114 399.836029,253.759552 399.718292,230.490814 
	C399.705322,227.928314 398.768036,225.370499 398.375610,222.401459 
	C398.674927,221.988983 398.858032,221.985565 399.041138,221.982147 
	C399.683319,223.655853 400.828369,225.313751 400.881592,227.005966 
	C401.126160,234.782806 401.007294,242.570175 401.132263,250.351944 
	C401.244324,257.327240 401.674652,264.300690 401.653107,271.274017 
	C401.629486,278.908264 401.216736,286.540649 401.037323,294.175323 
	C400.948059,297.974182 401.436584,301.839386 400.897736,305.563721 
	C399.837646,312.890900 396.096985,315.897644 388.686676,315.913605 
	C367.543823,315.959167 346.400604,315.893219 325.258057,315.985413 
	C322.128906,315.999023 319.002502,316.631195 315.456360,317.004333 
z"/>
<path fill="#7F5BE9" opacity="1.000000" stroke="none" 
	d="
M113.779213,189.206863 
	C110.426849,201.067230 105.461838,212.890747 103.398598,225.200638 
	C97.878113,258.137482 101.603035,290.117645 117.030960,320.607422 
	C115.346779,318.251923 113.330154,315.673645 111.949791,312.790680 
	C104.613152,297.468079 100.905678,281.132355 100.187737,264.285919 
	C99.515968,248.523270 98.829994,232.560333 103.244476,217.175247 
	C105.959435,207.713211 110.028557,198.639725 113.779213,189.206863 
z"/>
<path fill="#7F5BE9" opacity="1.000000" stroke="none" 
	d="
M309.458191,400.981873 
	C309.689331,397.543091 310.727844,393.986664 310.755096,390.422485 
	C310.916382,369.348785 310.689911,348.270996 311.006378,327.200775 
	C311.056213,323.880798 313.205719,320.592377 314.707764,317.163666 
	C314.328247,322.721161 313.097656,328.397095 313.019257,334.088898 
	C312.760956,352.839050 313.077972,371.597443 312.777557,390.346344 
	C312.721130,393.866119 310.838318,397.356598 309.458191,400.981873 
z"/>
<path fill="#6C47DD" opacity="1.000000" stroke="none" 
	d="
M234.124176,197.906769 
	C240.126053,196.561035 246.554718,194.148544 253.001801,194.098236 
	C297.421875,193.751678 341.845886,193.914902 386.268494,193.844971 
	C388.885895,193.840851 391.502411,193.236420 394.538635,192.835770 
	C392.581299,193.506668 390.206879,194.895432 387.827637,194.903793 
	C348.763580,195.041092 309.698242,195.129471 270.634705,194.932510 
	C258.484619,194.871262 246.438660,195.160553 234.124176,197.906769 
z"/>
<path fill="#6C47DD" opacity="1.000000" stroke="none" 
	d="
M393.691833,97.922729 
	C366.888977,98.106331 339.740417,98.028275 312.591797,97.995689 
	C292.104034,97.971092 271.615082,97.886391 251.129074,98.081657 
	C244.662018,98.143295 238.202759,99.023537 231.261047,99.529785 
	C233.912216,98.689766 237.039978,97.126427 240.172638,97.116486 
	C289.769348,96.959061 339.366699,96.995140 388.963867,97.025940 
	C390.424744,97.026848 391.885376,97.452827 393.691833,97.922729 
z"/>
<path fill="#7F5BE9" opacity="1.000000" stroke="none" 
	d="
M209.236176,399.270020 
	C216.924759,400.666107 224.806641,402.957672 232.838547,403.775238 
	C242.881348,404.797424 253.045380,404.762817 263.160950,404.901093 
	C275.452240,405.069153 287.749176,405.044708 300.039703,404.851715 
	C302.378601,404.815002 304.699097,403.606628 307.395142,402.824585 
	C305.954132,403.788269 304.154175,405.788116 302.336761,405.804138 
	C279.689453,406.003723 257.018158,406.476379 234.401733,405.608673 
	C226.034180,405.287628 217.794235,401.641144 209.236176,399.270020 
z"/>
<path fill="#704ED9" opacity="1.000000" stroke="none" 
	d="
M395.858002,219.748291 
	C392.956787,219.458389 389.915527,218.301834 386.866516,218.280899 
	C364.330505,218.126007 341.792816,218.166458 319.255981,218.241882 
	C316.810608,218.250076 314.367279,218.871704 311.498779,219.273712 
	C313.528259,218.555161 315.976807,217.110275 318.436401,217.091171 
	C341.410431,216.912674 364.386993,216.896027 387.360840,217.081482 
	C390.151428,217.103989 392.930145,218.596313 395.858002,219.748291 
z"/>
<path fill="#6C47DD" opacity="1.000000" stroke="none" 
	d="
M399.832642,187.662231 
	C399.660583,175.025787 399.856995,162.108917 399.884003,149.191711 
	C399.914856,134.446243 399.794861,119.700439 399.728241,104.480423 
	C400.154480,106.047134 400.964386,108.086494 400.973846,110.129570 
	C401.068329,130.515305 401.092163,150.901932 400.989227,171.287582 
	C400.962097,176.653595 400.427704,182.017059 399.832642,187.662231 
z"/>
<path fill="#7F5BE9" opacity="1.000000" stroke="none" 
	d="
M213.213867,103.292297 
	C203.774963,107.343163 193.887756,111.310349 183.633636,115.345306 
	C189.435608,112.163864 195.472626,108.618828 201.827042,105.785728 
	C205.188095,104.287209 209.101501,104.027580 213.213867,103.292297 
z"/>
<path fill="#7F5BE9" opacity="1.000000" stroke="none" 
	d="
M153.012207,368.422424 
	C160.992157,373.796112 169.049271,379.500061 177.319473,385.479431 
	C172.087997,382.671326 166.467697,379.852875 161.265518,376.403809 
	C158.197723,374.369873 155.792542,371.336548 153.012207,368.422424 
z"/>
<path fill="#6A46DE" opacity="1.000000" stroke="none" 
	d="
M299.907166,307.374390 
	C299.006592,307.945038 297.666748,308.963959 296.327057,308.963715 
	C279.259003,308.960815 262.190918,308.811707 244.740799,308.436890 
	C259.597534,308.116577 274.836639,308.093048 290.074951,307.973724 
	C293.207367,307.949219 296.337006,307.566589 299.907166,307.374390 
z"/>
<path fill="#7F5BE9" opacity="1.000000" stroke="none" 
	d="
M132.049820,158.361404 
	C128.493134,164.487396 124.599915,170.715851 120.421402,177.145996 
	C122.209709,169.958466 125.754837,163.471405 132.049820,158.361404 
z"/>
<path fill="#7F5BE9" opacity="1.000000" stroke="none" 
	d="
M145.161697,143.531403 
	C141.627747,147.998016 137.746765,152.499908 133.567123,157.146484 
	C134.923111,150.870483 139.944000,147.281769 145.161697,143.531403 
z"/>
<path fill="#7F5BE9" opacity="1.000000" stroke="none" 
	d="
M117.047424,321.306427 
	C120.111794,326.296844 123.177925,331.666046 126.315521,337.391785 
	C123.274384,332.393921 120.161789,327.039581 117.047424,321.306427 
z"/>
<path fill="#7F5BE9" opacity="1.000000" stroke="none" 
	d="
M142.943939,358.454956 
	C146.153717,361.223053 149.390625,364.345337 152.768555,367.768677 
	C149.596725,364.982880 146.283905,361.896057 142.943939,358.454956 
z"/>
<path fill="#7F5BE9" opacity="1.000000" stroke="none" 
	d="
M160.679321,130.035583 
	C157.749084,132.761230 154.449799,135.496109 150.854950,138.383820 
	C152.355774,134.036530 155.620056,131.222015 160.679321,130.035583 
z"/>
<path fill="#6C47DD" opacity="1.000000" stroke="none" 
	d="
M230.208099,99.163223 
	C225.390976,100.542023 220.103043,101.870087 214.407135,103.199478 
	C219.245193,101.838036 224.491241,100.475266 230.208099,99.163223 
z"/>
<path fill="#7F5BE9" opacity="1.000000" stroke="none" 
	d="
M131.344513,345.041565 
	C133.286148,346.840942 135.218811,349.010681 137.283493,351.501221 
	C135.388870,349.685303 133.362213,347.548615 131.344513,345.041565 
z"/>
<path fill="#7F5BE9" opacity="1.000000" stroke="none" 
	d="
M185.157440,389.977356 
	C187.907150,390.897919 190.840942,392.137360 194.010986,393.634155 
	C191.278641,392.693085 188.310089,391.494659 185.157440,389.977356 
z"/>
<path fill="#7F5BE9" opacity="1.000000" stroke="none" 
	d="
M119.556686,178.020966 
	C118.765083,180.131027 117.659416,182.379028 116.294273,184.836273 
	C117.104080,182.750000 118.173355,180.454437 119.556686,178.020966 
z"/>
<path fill="#7F5BE9" opacity="1.000000" stroke="none" 
	d="
M180.956314,116.329422 
	C179.417496,117.572594 177.505676,118.763290 175.238251,120.002029 
	C176.782867,118.792358 178.683090,117.534653 180.956314,116.329422 
z"/>
<path fill="#7F5BE9" opacity="1.000000" stroke="none" 
	d="
M200.094345,396.379852 
	C202.098892,396.694763 204.250809,397.310913 206.729034,398.110931 
	C204.784149,397.756897 202.512924,397.218994 200.094345,396.379852 
z"/>
<path fill="#7F5BE9" opacity="1.000000" stroke="none" 
	d="
M149.043030,139.433487 
	C148.634720,140.357300 147.867172,141.265274 146.833466,142.308441 
	C147.272827,141.434967 147.978302,140.426315 149.043030,139.433487 
z"/>
<path fill="#7F5BE9" opacity="1.000000" stroke="none" 
	d="
M115.754303,185.053055 
	C115.554123,186.236023 115.061378,187.444931 114.309723,188.857941 
	C114.521118,187.734375 114.991432,186.406693 115.754303,185.053055 
z"/>
<path fill="#7F5BE9" opacity="1.000000" stroke="none" 
	d="
M195.107635,394.481201 
	C196.009415,394.493652 197.097076,394.822418 198.451477,395.372864 
	C197.576660,395.328888 196.435089,395.063202 195.107635,394.481201 
z"/>
<path fill="#7F5BE9" opacity="1.000000" stroke="none" 
	d="
M178.094238,386.297974 
	C178.910828,386.417847 179.871841,386.843872 181.017487,387.530884 
	C180.214294,387.395966 179.226456,387.000061 178.094238,386.297974 
z"/>
<path fill="#7F5BE9" opacity="1.000000" stroke="none" 
	d="
M181.305206,388.060486 
	C182.178452,388.170227 183.241699,388.594788 184.534927,389.283356 
	C183.675003,389.156708 182.585098,388.766022 181.305206,388.060486 
z"/>
<path fill="#6C47DD" opacity="1.000000" stroke="none" 
	d="
M396.813263,99.870811 
	C396.001801,99.682953 395.091125,99.162453 393.995911,98.384102 
	C394.778931,98.596893 395.746490,99.067528 396.813263,99.870811 
z"/>
<path fill="#7F5BE9" opacity="1.000000" stroke="none" 
	d="
M126.329193,338.023132 
	C126.981766,338.488464 127.623367,339.294220 128.341461,340.405884 
	C127.718048,339.929047 127.018135,339.146301 126.329193,338.023132 
z"/>
<path fill="#7F5BE9" opacity="1.000000" stroke="none" 
	d="
M174.221710,120.243736 
	C173.724411,120.917458 172.863007,121.604942 171.678711,122.382416 
	C172.189743,121.734100 173.023682,120.995804 174.221710,120.243736 
z"/>
<path fill="#7F5BE9" opacity="1.000000" stroke="none" 
	d="
M169.888916,123.219498 
	C169.455261,123.878899 168.685654,124.558556 167.613739,125.328873 
	C168.058609,124.692940 168.805801,123.966339 169.888916,123.219498 
z"/>
<path fill="#7F5BE9" opacity="1.000000" stroke="none" 
	d="
M167.053406,125.373077 
	C166.436951,126.135925 165.492249,126.949707 164.238083,127.820892 
	C164.860794,127.060196 165.792969,126.242104 167.053406,125.373077 
z"/>
<path fill="#7F5BE9" opacity="1.000000" stroke="none" 
	d="
M163.544983,127.940887 
	C163.118744,128.580154 162.368057,129.248535 161.317963,129.982452 
	C161.752563,129.355331 162.486557,128.662659 163.544983,127.940887 
z"/>
<path fill="#7F5BE9" opacity="1.000000" stroke="none" 
	d="
M138.185822,352.971985 
	C138.719940,353.223938 139.306732,353.797241 139.967529,354.675110 
	C139.440506,354.417542 138.839508,353.855469 138.185822,352.971985 
z"/>
<path fill="#6C47DD" opacity="1.000000" stroke="none" 
	d="
M395.093811,192.830719 
	C395.344635,192.334290 395.906219,191.795151 396.751251,191.168564 
	C396.491302,191.650085 395.947968,192.219055 395.093811,192.830719 
z"/>
<path fill="#7F5BE9" opacity="1.000000" stroke="none" 
	d="
M140.101303,355.256470 
	C140.624054,355.460266 141.224136,355.961761 141.921448,356.746216 
	C141.405319,356.537476 140.791977,356.045837 140.101303,355.256470 
z"/>
<path fill="#6C47DD" opacity="1.000000" stroke="none" 
	d="
M398.360779,189.896210 
	C398.433228,189.328934 398.796143,188.636124 399.406799,187.776733 
	C399.320160,188.330307 398.985718,189.050491 398.360779,189.896210 
z"/>
<path fill="#7F5BE9" opacity="1.000000" stroke="none" 
	d="
M182.991547,115.368164 
	C182.816910,115.698746 182.331253,116.021141 181.550186,116.387222 
	C181.730011,116.073944 182.205261,115.716965 182.991547,115.368164 
z"/>
<path fill="#704ED9" opacity="1.000000" stroke="none" 
	d="
M398.829773,221.793686 
	C398.858032,221.985565 398.674927,221.988983 398.217224,222.002579 
	C397.635406,221.893127 397.396484,221.692245 397.145874,221.186127 
	C397.583405,221.176498 398.100891,221.390869 398.829773,221.793686 
z"/>
<path fill="#7F5BE9" opacity="1.000000" stroke="none" 
	d="
M130.068451,343.216217 
	C130.417282,343.336395 130.833847,343.752869 131.325439,344.463745 
	C130.979065,344.342926 130.557617,343.927704 130.068451,343.216217 
z"/>
<path fill="#6C47DD" opacity="1.000000" stroke="none" 
	d="
M399.788177,103.923630 
	C399.467804,103.732567 399.091888,103.223885 398.673645,102.387573 
	C398.998444,102.575302 399.365540,103.090652 399.788177,103.923630 
z"/>
<path fill="#6A46DE" opacity="1.000000" stroke="none" 
	d="
M301.924805,306.116150 
	C301.788879,306.489716 301.335907,306.949127 300.550781,307.473450 
	C300.681671,307.092926 301.144684,306.647491 301.924805,306.116150 
z"/>
<path fill="#7F5BE9" opacity="1.000000" stroke="none" 
	d="
M128.384827,340.881226 
	C128.567047,340.870300 128.834595,341.122375 129.164093,341.651215 
	C128.974075,341.666718 128.722107,341.405457 128.384827,340.881226 
z"/>
<path fill="#7F5BE9" opacity="1.000000" stroke="none" 
	d="
M133.085815,157.323898 
	C133.143143,157.508026 132.960526,157.824356 132.520294,158.253754 
	C132.457092,158.063232 132.651474,157.759674 133.085815,157.323898 
z"/>
<path fill="#7F5BE9" opacity="1.000000" stroke="none" 
	d="
M146.253677,142.541428 
	C146.322906,142.742432 146.143478,143.026764 145.722473,143.405182 
	C145.655594,143.207764 145.830307,142.916260 146.253677,142.541428 
z"/>
<path fill="#7F5BE9" opacity="1.000000" stroke="none" 
	d="
M150.249817,138.617798 
	C150.288101,138.820923 150.071793,139.078186 149.604248,139.396759 
	C149.567062,139.196030 149.781143,138.933990 150.249817,138.617798 
z"/>
<path fill="#6C47DD" opacity="1.000000" stroke="none" 
	d="
M397.828857,100.935867 
	C397.658051,100.968201 397.323395,100.780128 396.904724,100.304764 
	C397.102112,100.250130 397.383545,100.482796 397.828857,100.935867 
z"/>
<path fill="#704ED9" opacity="1.000000" stroke="none" 
	d="
M311.067749,219.249817 
	C311.066284,219.410004 310.821106,219.677048 310.301697,219.995453 
	C310.292969,219.816757 310.558502,219.586700 311.067749,219.249817 
z"/>
<path fill="#7F5BE9" opacity="1.000000" stroke="none" 
	d="
M171.152649,122.452255 
	C171.163330,122.640251 170.913116,122.902000 170.386688,123.210373 
	C170.370895,123.013344 170.631317,122.769676 171.152649,122.452255 
z"/>
<path fill="#7F5BE9" opacity="1.000000" stroke="none" 
	d="
M307.949890,402.689209 
	C307.904388,402.504730 308.115997,402.165405 308.603271,401.690430 
	C308.654999,401.881287 308.430969,402.207794 307.949890,402.689209 
z"/>
<path fill="#6C47DD" opacity="1.000000" stroke="none" 
	d="
M398.749207,102.086487 
	C398.572723,102.093948 398.265289,101.846664 397.901764,101.298233 
	C398.103210,101.275299 398.360687,101.553528 398.749207,102.086487 
z"/>
</svg>