<?xml version="1.0" encoding="UTF-8"?>
<svg version="1.1" xmlns="http://www.w3.org/2000/svg" width="500" height="500">
<path d="M0 0 C165 0 330 0 500 0 C500 165 500 330 500 500 C335 500 170 500 0 500 C0 335 0 170 0 0 Z " fill="#6F3BFD" transform="translate(0,0)"/>
<path d="M0 0 C1.31363022 -0.0071553 2.62726044 -0.01431061 3.98069763 -0.02168274 C5.42442298 -0.02452242 6.86814858 -0.02723421 8.31187439 -0.02983093 C9.84157463 -0.03610145 11.37127336 -0.04274877 12.90097046 -0.04974365 C17.90894018 -0.07070243 22.91690994 -0.08113285 27.9249115 -0.09111023 C29.65151421 -0.09515972 31.37811677 -0.0992767 33.10471916 -0.10346031 C41.21145586 -0.12248764 49.31818355 -0.13672833 57.42493826 -0.14507228 C66.77898833 -0.1548601 76.13280275 -0.18123001 85.48676974 -0.22157317 C92.7225798 -0.2517101 99.95832216 -0.26653852 107.19419378 -0.26985329 C111.51421333 -0.27220494 115.83398039 -0.2811814 120.15393257 -0.30631447 C124.21452911 -0.32956042 128.27470616 -0.33384268 132.33535194 -0.32355309 C133.82488652 -0.3230569 135.31444153 -0.32940186 136.80391312 -0.34310913 C138.8380302 -0.3607813 140.87232883 -0.35135185 142.90649414 -0.34057617 C144.04448991 -0.34296453 145.18248568 -0.34535288 146.35496616 -0.34781361 C150.06266597 0.25692509 151.7209512 1.55603296 154.38975525 4.14717102 C155.9458198 7.25930011 155.58145254 10.57138611 155.61436462 13.98994446 C155.6257547 14.79989868 155.63714478 15.60985291 155.64888 16.4443512 C155.75947985 24.91479805 155.80695139 33.38611521 155.84971619 41.85713196 C155.87200053 45.87709687 155.91378118 49.89613473 155.97276306 53.91572571 C156.04382705 58.768109 156.0805443 63.61961909 156.09283447 68.47249603 C156.10323886 70.32092664 156.12567235 72.16933063 156.16043091 74.01746368 C156.20663882 76.60828354 156.2086388 79.19567889 156.20030212 81.78681946 C156.22389801 82.54756775 156.2474939 83.30831604 156.27180481 84.09211731 C156.20953081 88.09907264 155.42790422 90.74341119 152.72697449 93.62435913 C147.25210143 97.67568212 140.69572763 96.95718951 134.18370056 96.87251282 C132.74239795 96.87577525 131.3010993 96.88171635 129.8598175 96.89012146 C126.76521222 96.9024965 123.67142276 96.8961348 120.57686615 96.8750515 C115.67517152 96.84187068 110.7741102 96.85132003 105.87236023 96.86636353 C98.11177875 96.88522672 90.35152469 96.87623591 82.59095836 96.85504228 C68.71293522 96.81737011 54.83496057 96.81328021 40.95691371 96.83989459 C36.09345451 96.84794515 31.23039407 96.83948469 26.36698198 96.81733167 C23.32906423 96.80617268 20.29123163 96.80724966 17.25329971 96.81120682 C15.85497631 96.8104266 14.45664398 96.80455307 13.05836868 96.7929287 C4.66028814 96.72597556 -2.63898275 97.45264576 -10.61024475 100.14717102 C-11.71497131 100.50037415 -12.81969788 100.85357727 -13.957901 101.21748352 C-21.60195169 104.18711472 -26.93020439 108.27372427 -32.61024475 114.14717102 C-33.18516663 114.73627258 -33.7600885 115.32537415 -34.35243225 115.93232727 C-44.61886684 127.18285015 -49.67228264 140.79315252 -48.989151 156.02607727 C-47.79393592 171.79617215 -41.50141968 185.08456697 -30.61805725 196.60029602 C-24.97847101 201.37563398 -18.41638792 204.37480871 -11.61024475 207.14717102 C-10.9810463 207.41248627 -10.35184784 207.67780151 -9.70358276 207.95115662 C-3.02845707 210.49146435 3.26067183 210.58259534 10.34288025 210.54560852 C11.56126587 210.5484787 12.77965149 210.55134888 14.03495789 210.55430603 C16.59658781 210.55633845 19.15823354 210.55086647 21.71983337 210.5382843 C25.64140831 210.52216423 29.5619613 210.53819061 33.48350525 210.55732727 C35.97829919 210.55534578 38.47309249 210.55150407 40.96788025 210.54560852 C42.13877197 210.55168121 43.3096637 210.55775391 44.51603699 210.56401062 C45.60777222 210.55455414 46.69950745 210.54509766 47.82432556 210.53535461 C48.78091064 210.53296783 49.73749573 210.53058105 50.72306824 210.52812195 C54.62147135 209.97121359 57.30430317 208.59359799 59.68728638 205.4181366 C60.67681598 202.21915121 60.65673909 199.12616867 60.6292572 195.8117218 C60.63227844 194.71339523 60.63227844 194.71339523 60.63536072 193.59288025 C60.63890043 192.00617475 60.63814627 190.41945512 60.63358498 188.83275223 C60.6279834 186.31864966 60.63716415 183.80500701 60.65078735 181.29093933 C60.68788006 174.14420012 60.70645947 166.99761711 60.69517517 159.8507843 C60.68931496 155.47576741 60.70762823 151.10139782 60.74106407 146.72651291 C60.74900468 145.06242049 60.74775921 143.39825728 60.73703957 141.73418045 C60.7226666 139.40254432 60.73902732 137.07293438 60.7620697 134.7414093 C60.75030197 134.05860901 60.73853424 133.37580872 60.72640991 132.6723175 C60.83286554 127.15988749 62.59125751 124.85902142 66.38975525 121.14717102 C69.93730401 119.96465477 73.17735845 119.96847405 76.87120056 119.93843079 C77.63092667 119.928647 78.39065277 119.91886322 79.17340088 119.90878296 C81.6882096 119.87886419 84.20296525 119.85745272 86.71788025 119.83857727 C88.00800648 119.82871953 88.00800648 119.82871953 89.32419586 119.81866264 C93.87744503 119.7860835 98.43067093 119.76162984 102.98399353 119.74214172 C106.74768699 119.72433437 110.51063041 119.68952209 114.27403259 119.63960266 C118.82281051 119.57933996 123.37089348 119.54865797 127.92005157 119.53896904 C129.65040424 119.53042325 131.38073877 119.51162656 133.11086273 119.48222542 C135.53830359 119.44319741 137.96305028 119.44228945 140.39073181 119.45014954 C141.45397423 119.42014862 141.45397423 119.42014862 142.53869629 119.38954163 C147.55225729 119.46207415 150.53844956 120.94233627 154.0552578 124.32462788 C156.35985738 127.47205402 156.34125797 130.72239342 156.24790955 134.45991516 C156.2553569 135.27205978 156.26280426 136.08420441 156.27047729 136.92095947 C156.28593299 139.59261792 156.25107481 142.26092228 156.213974 144.93232727 C156.2110691 146.79507225 156.21068471 148.65782271 156.21270752 150.52056885 C156.20949439 154.41878401 156.1825669 158.3158693 156.13755798 162.21382141 C156.08084981 167.2064824 156.07270283 172.19773656 156.080966 177.19066715 C156.08376536 181.03495294 156.06615007 184.87892555 156.04183388 188.72312737 C156.031633 190.56388188 156.02652636 192.40467201 156.02663231 194.24545479 C156.02265909 196.81888435 155.99249716 199.39069093 155.9549408 201.96382141 C155.95832458 202.7218808 155.96170837 203.47994019 155.9651947 204.26097107 C155.8567219 209.15840795 154.88949854 211.71213321 151.38975525 215.14717102 C148.40792008 216.6380886 145.69961077 216.28018024 142.37315369 216.28901672 C141.6509816 216.29249115 140.92880951 216.29596558 140.18475342 216.29954529 C138.61384096 216.30690512 137.04291809 216.31224929 135.47199249 216.31583595 C132.98333292 216.32299773 130.49487094 216.338663 128.00627136 216.35717773 C120.92953742 216.40965395 113.85290994 216.45760502 106.77598572 216.47309875 C102.4486912 216.48319438 98.12189114 216.51256117 93.79479218 216.55441856 C92.14746597 216.5667138 90.50006986 216.57185251 88.85269928 216.56962013 C86.54257708 216.56726051 84.23386604 216.58948208 81.92393494 216.61714172 C79.95441864 216.62594109 79.95441864 216.62594109 77.94511414 216.63491821 C73.80462315 217.23147631 71.62142939 218.53866025 68.38975525 221.14717102 C66.92325198 224.08017756 67.23686977 227.03991555 67.23204041 230.25556946 C67.22695969 230.98749512 67.22187897 231.71942078 67.21664429 232.473526 C67.20593211 234.065715 67.19731526 235.65791914 67.19052505 237.2501297 C67.17874375 239.7723885 67.1592916 242.29447547 67.1374054 244.81666565 C67.07577315 251.98895017 67.0217942 259.16121861 66.98838806 266.33369446 C66.96741087 270.71927654 66.93207965 275.10454787 66.88763046 279.48995209 C66.87349036 281.15960779 66.86475252 282.82931851 66.86157608 284.49903107 C66.8566524 286.84008135 66.83345684 289.18031157 66.80625916 291.52119446 C66.81076836 292.55010803 66.81076836 292.55010803 66.81536865 293.59980774 C66.73706068 298.15183655 65.80763188 301.29308198 63.38975525 305.14717102 C59.78782907 307.54845514 58.13383079 307.41034732 53.84898376 307.43769836 C53.18816803 307.44441559 52.52735229 307.45113281 51.84651184 307.45805359 C49.65381877 307.47709331 47.46143224 307.48096409 45.2686615 307.48310852 C43.72902302 307.48954432 42.18938574 307.49627326 40.64974976 307.50328064 C37.40900353 307.5152767 34.16836391 307.51896028 30.92759705 307.51777649 C27.64091119 307.51761542 24.35479143 307.53125287 21.06822205 307.55879211 C-14.04971072 307.84877287 -14.04971072 307.84877287 -30.61024475 303.14717102 C-32.16497498 302.71549622 -32.16497498 302.71549622 -33.75111389 302.27510071 C-36.18157879 301.54071884 -38.54654026 300.72716196 -40.92274475 299.83467102 C-41.74121887 299.53689758 -42.55969299 299.23912415 -43.40296936 298.93232727 C-85.32361781 283.36892381 -113.98050185 252.99163161 -132.4969635 212.92451477 C-137.70741404 201.35265538 -140.58315372 189.62473813 -142.61024475 177.14717102 C-142.78297913 176.2466803 -142.9557135 175.34618958 -143.13368225 174.41841125 C-143.67776957 170.68366433 -143.79071247 167.01419168 -143.81336975 163.24873352 C-143.81906982 162.49611237 -143.8247699 161.74349121 -143.8306427 160.96806335 C-143.84005478 159.37625005 -143.84661153 157.7844176 -143.85047913 156.19258118 C-143.86007682 153.81379241 -143.89108967 151.43590978 -143.92274475 149.05732727 C-144.20466441 108.13558428 -124.44673588 71.85715068 -96.61024475 43.14717102 C-96.05377258 42.56008362 -95.49730042 41.97299622 -94.92396545 41.36811829 C-90.64752754 36.94255205 -86.05862124 33.27199792 -81.04774475 29.70967102 C-80.26125549 29.14763977 -79.47476624 28.58560852 -78.66444397 28.00654602 C-58.81069183 14.00633175 -36.54048444 5.16444556 -12.61024475 1.14717102 C-11.68987206 0.97400769 -10.76949938 0.80084436 -9.82123661 0.62243366 C-6.49977168 0.13081977 -3.35676858 0.0126014 0 0 Z " fill="#FEFDFE" transform="translate(243.61024475097656,96.85282897949219)"/>
<path d="M0 0 C0.33 0 0.66 0 1 0 C1 28.38 1 56.76 1 86 C0.34 86 -0.32 86 -1 86 C-1.309375 86.804375 -1.61875 87.60875 -1.9375 88.4375 C-3 91 -3 91 -4 92 C-6.38179053 92.10898553 -8.73565576 92.15421743 -11.1184082 92.15771484 C-12.23552689 92.16533592 -12.23552689 92.16533592 -13.37521362 92.17311096 C-14.99798201 92.18383761 -16.6207654 92.19244873 -18.24355507 92.19923019 C-20.81139061 92.21098607 -23.37905542 92.23043078 -25.94682312 92.25234985 C-33.24956588 92.31407279 -40.55229298 92.36800796 -47.85522461 92.40136719 C-52.31744929 92.42230265 -56.77936612 92.45760015 -61.24141502 92.50212479 C-62.94342615 92.51629801 -64.64549178 92.52501021 -66.34755898 92.52817917 C-68.72983653 92.53308315 -71.11129652 92.55622782 -73.4934082 92.58349609 C-74.54949028 92.57898689 -74.54949028 92.57898689 -75.62690735 92.5743866 C-79.76285912 92.6447609 -81.91457681 93.25346527 -85 96 C-85.66 96 -86.32 96 -87 96 C-87 121.41 -87 146.82 -87 173 C-87.66 173 -88.32 173 -89 173 C-89.09271739 163.17726556 -89.16377381 153.35463538 -89.20724869 143.53155231 C-89.2281155 138.97017767 -89.25641641 134.40910262 -89.30175781 129.84790039 C-89.34524818 125.44530992 -89.36914393 121.04300745 -89.37950897 116.64021873 C-89.38689464 114.96127985 -89.4013173 113.28235656 -89.42292023 111.60354042 C-89.45199756 109.25007811 -89.45595434 106.89780275 -89.45410156 104.54418945 C-89.46848267 103.8515097 -89.48286377 103.15882996 -89.49768066 102.44515991 C-89.46844095 99.00812758 -89.0574408 97.09194087 -87.22161865 94.15348816 C-82.85314466 89.91898238 -79.80017069 89.7523591 -73.74047852 89.76049805 C-72.65437286 89.75747681 -72.65437286 89.75747681 -71.54632568 89.75439453 C-69.97762496 89.75085523 -68.40890995 89.75160848 -66.84021187 89.75617027 C-64.35578625 89.76177087 -61.8718262 89.7525932 -59.38743591 89.7389679 C-52.32524519 89.70186785 -45.26321321 89.68330619 -38.20092773 89.69458008 C-33.87778275 89.70043479 -29.55529385 89.68215498 -25.23228264 89.64869118 C-23.58690156 89.64074275 -21.94144888 89.64200669 -20.29608345 89.65271568 C-17.99296987 89.66706185 -15.69191616 89.65075645 -13.38891602 89.62768555 C-12.07971695 89.62705612 -10.77051788 89.6264267 -9.42164612 89.6257782 C-4.99729914 88.81661799 -3.56726315 87.67690046 -1 84 C-0.50215278 81.04810457 -0.30745096 78.66882509 -0.34057617 75.72143555 C-0.33009247 74.90140549 -0.31960876 74.08137543 -0.30880737 73.23649597 C-0.2800924 70.53618366 -0.28634448 67.83715618 -0.29296875 65.13671875 C-0.27985152 63.26054785 -0.26454722 61.38439107 -0.24714661 59.508255 C-0.20728656 54.57791702 -0.19710551 49.64794837 -0.19311523 44.71746826 C-0.18378571 39.68327625 -0.14637328 34.64930143 -0.11132812 29.61523438 C-0.04674202 19.74349974 -0.01351031 9.87192743 0 0 Z " fill="#754DE5" transform="translate(399,223)"/>
<path d="M0 0 C0.99 0.33 1.98 0.66 3 1 C3.13918699 11.83117845 3.24571595 22.66214321 3.31087303 33.49403477 C3.34214981 38.52409579 3.3845558 43.55354375 3.45263672 48.58325195 C3.51795972 53.43975259 3.55373353 58.29566458 3.56926346 63.15257072 C3.58032662 65.00295208 3.60193113 66.85330219 3.63438034 68.70343208 C3.67811761 71.3011173 3.68392718 73.89638898 3.68115234 76.49438477 C3.702724 77.25467987 3.72429565 78.01497498 3.746521 78.79830933 C3.69073096 83.6441743 2.63971469 87.16360647 -0.79680824 90.6872263 C-5.80748923 93.67284487 -11.88963098 92.89953162 -17.54248047 92.79467773 C-19.03103034 92.79270184 -20.51958702 92.79381424 -22.00813293 92.79777527 C-26.03924187 92.79978047 -30.06888727 92.75868213 -34.09965658 92.70975757 C-38.3156396 92.66594233 -42.53165769 92.66188208 -46.74783325 92.65357971 C-54.72717383 92.63183909 -62.70584156 92.57441846 -70.6848861 92.50413328 C-79.7706096 92.42584025 -88.85636556 92.38739095 -97.94234252 92.35226524 C-116.62860955 92.27913403 -135.31425064 92.15604171 -154 92 C-154 91.67 -154 91.34 -154 91 C-153.24277838 90.99945523 -152.48555676 90.99891047 -151.70538902 90.99834919 C-133.27695098 90.98337918 -114.84876368 90.94092353 -96.42046165 90.86790943 C-87.50863282 90.8332624 -78.59695861 90.80790429 -69.68505859 90.80444336 C-61.91704791 90.80140306 -54.14931264 90.78090385 -46.38140833 90.73947543 C-42.26861929 90.71814952 -38.15622175 90.70554257 -34.04337692 90.71384621 C-30.17062506 90.72138916 -26.29866628 90.7055548 -22.42605972 90.67193985 C-21.0063282 90.66370935 -19.58651776 90.66395352 -18.16679382 90.67340279 C-9.75685427 90.97766655 -9.75685427 90.97766655 -2.15087891 87.98193359 C0.60045304 84.16754445 0.80715084 81.16708441 0.68115234 76.62963867 C0.6820285 75.79985504 0.68290466 74.97007141 0.68380737 74.11514282 C0.67963852 71.38178226 0.63302275 68.65089863 0.5859375 65.91796875 C0.57474279 64.01940756 0.5662039 62.120829 0.56021118 60.22224426 C0.53733443 55.23230894 0.47842114 50.24342643 0.4119873 45.25390625 C0.35053987 40.15965009 0.32319091 35.0652233 0.29296875 29.97070312 C0.2286768 19.98000692 0.12631122 9.99009111 0 0 Z " fill="#714BE3" transform="translate(398,102)"/>
<path d="M0 0 C0.33 0 0.66 0 1 0 C1 28.38 1 56.76 1 86 C0.34 86 -0.32 86 -1 86 C-1.309375 86.804375 -1.61875 87.60875 -1.9375 88.4375 C-3 91 -3 91 -4 92 C-6.40447729 92.06501324 -8.77851172 92.065159 -11.18188477 92.02172852 C-11.93305573 92.01212097 -12.68422668 92.00251343 -13.4581604 91.99261475 C-15.95266765 91.95951019 -18.44700595 91.91922191 -20.94140625 91.87890625 C-22.66632991 91.85461631 -24.39125991 91.8307722 -26.11619568 91.80735779 C-30.66518341 91.74440474 -35.21405961 91.67537011 -39.76293945 91.60510254 C-44.40115258 91.53452016 -49.03944504 91.46964287 -53.67773438 91.40429688 C-62.78524342 91.27514001 -71.8926449 91.13956336 -81 91 C-81 90.67 -81 90.34 -81 90 C-79.60724602 89.99786247 -79.60724602 89.99786247 -78.18635559 89.99568176 C-69.43155576 89.97784453 -60.6772611 89.93620963 -51.92270374 89.86790943 C-47.42195295 89.83363366 -42.92154179 89.80852858 -38.4206543 89.80444336 C-34.07611332 89.8001616 -29.73233858 89.77170982 -25.38803673 89.72656822 C-23.73151807 89.71358916 -22.07490773 89.70928702 -20.4183445 89.71384621 C-18.09552135 89.71874971 -15.77493993 89.69267609 -13.45239258 89.65942383 C-12.76906357 89.66804947 -12.08573456 89.67667511 -11.38169861 89.68556213 C-7.83025862 89.6004554 -6.01508433 89.0104384 -3.07543945 86.97619629 C-0.44227302 83.20021519 -0.29059958 80.1682145 -0.34057617 75.72143555 C-0.33009247 74.90140549 -0.31960876 74.08137543 -0.30880737 73.23649597 C-0.2800924 70.53618366 -0.28634448 67.83715618 -0.29296875 65.13671875 C-0.27985152 63.26054785 -0.26454722 61.38439107 -0.24714661 59.508255 C-0.20728656 54.57791702 -0.19710551 49.64794837 -0.19311523 44.71746826 C-0.18378571 39.68327625 -0.14637328 34.64930143 -0.11132812 29.61523438 C-0.04674202 19.74349974 -0.01351031 9.87192743 0 0 Z " fill="#9C81ED" transform="translate(399,223)"/>
<path d="M0 0 C0.33 0 0.66 0 1 0 C1 11.22 1 22.44 1 34 C-1.94575394 28.10849211 -2.19366002 22.6299792 -2.1875 16.125 C-2.18814453 15.42117187 -2.18878906 14.71734375 -2.18945312 13.9921875 C-2.13854357 8.9937953 -1.57510871 4.72532614 0 0 Z " fill="#8A68E9" transform="translate(196,233)"/>
<path d="M0 0 C0.33 0 0.66 0 1 0 C1 8.91 1 17.82 1 27 C0.34 27 -0.32 27 -1 27 C-1.309375 27.804375 -1.61875 28.60875 -1.9375 29.4375 C-3 32 -3 32 -4 33 C-5.66617115 33.04063832 -7.33388095 33.042721 -9 33 C-9 32.34 -9 31.68 -9 31 C-8.05125 30.566875 -7.1025 30.13375 -6.125 29.6875 C-2.79958063 28.20697799 -2.79958063 28.20697799 -1 25 C-0.63201307 22.28924456 -0.63201307 22.28924456 -0.5859375 19.23828125 C-0.54726563 18.12001953 -0.50859375 17.00175781 -0.46875 15.84960938 C-0.4378125 14.68236328 -0.406875 13.51511719 -0.375 12.3125 C-0.33632813 11.13365234 -0.29765625 9.95480469 -0.2578125 8.74023438 C-0.16345609 5.82698023 -0.07786839 2.91373393 0 0 Z " fill="#805CE7" transform="translate(399,282)"/>
<path d="M0 0 C2.31 0 4.62 0 7 0 C3.43652495 2.77557102 -0.32312851 5.19493781 -4.125 7.625 C-4.75792969 8.03234375 -5.39085937 8.4396875 -6.04296875 8.859375 C-10.7324953 11.86624765 -10.7324953 11.86624765 -13 13 C-13.33 11.68 -13.66 10.36 -14 9 C-12.35 9 -10.7 9 -9 9 C-9 8.34 -9 7.68 -9 7 C-7.02 6.34 -5.04 5.68 -3 5 C-3 4.34 -3 3.68 -3 3 C-2.01 3 -1.02 3 0 3 C0 2.01 0 1.02 0 0 Z " fill="#724AE9" transform="translate(179,112)"/>
<path d="M0 0 C0.66 0.33 1.32 0.66 2 1 C1.40832031 1.51949219 0.81664062 2.03898438 0.20703125 2.57421875 C-3.98717938 6.27579779 -8.10217895 9.98753715 -12 14 C-13 15 -14 16 -15 17 C-15.66 16.67 -16.32 16.34 -17 16 C-14.91975578 13.89270058 -12.83597761 11.78911127 -10.75 9.6875 C-9.87021484 8.79514648 -9.87021484 8.79514648 -8.97265625 7.88476562 C-6.12147184 5.01756332 -3.34887496 2.29613457 0 0 Z " fill="#EEE3FD" transform="translate(158,130)"/>
<path d="M0 0 C0 4.40739541 -1.96981861 6.9033553 -4.9375 10.0625 C-5.618125 10.701875 -6.29875 11.34125 -7 12 C-8.11375 13.11375 -8.11375 13.11375 -9.25 14.25 C-9.8275 14.8275 -10.405 15.405 -11 16 C-9.66534338 12.22959506 -7.99723337 9.42875097 -5.5 6.3125 C-4.8915625 5.54550781 -4.283125 4.77851563 -3.65625 3.98828125 C-2 2 -2 2 0 0 Z " fill="#724FE6" transform="translate(211,210)"/>
<path d="M0 0 C1.72926874 0.31193464 3.45841044 0.62457362 5.1875 0.9375 C6.15042969 1.11152344 7.11335937 1.28554688 8.10546875 1.46484375 C10.74239972 1.9523735 13.3719905 2.46671105 16 3 C16 3.33 16 3.66 16 4 C5.1005291 4.38095238 5.1005291 4.38095238 1 2 C0.67 1.34 0.34 0.68 0 0 Z " fill="#6D45E5" transform="translate(210,399)"/>
<path d="M0 0 C0.99 0.33 1.98 0.66 3 1 C0.03 3.64 -2.94 6.28 -6 9 C-6.66 7.68 -7.32 6.36 -8 5 C-7.34 4.67 -6.68 4.34 -6 4 C-5.34 4.33 -4.68 4.66 -4 5 C-4 4.34 -4 3.68 -4 3 C-3.34 3 -2.68 3 -2 3 C-2 2.34 -2 1.68 -2 1 C-1.34 0.67 -0.68 0.34 0 0 Z " fill="#7957E8" transform="translate(154,131)"/>
<path d="M0 0 C0.66 0.33 1.32 0.66 2 1 C-2.455 3.97 -2.455 3.97 -7 7 C-7.33 5.68 -7.66 4.36 -8 3 C-6.35 3 -4.7 3 -3 3 C-3 2.34 -3 1.68 -3 1 C-2.01 0.67 -1.02 0.34 0 0 Z " fill="#7955E6" transform="translate(173,118)"/>
<path d="M0 0 C0 3 0 3 -2 6 C-4.625 6.1875 -4.625 6.1875 -7 6 C-7 5.34 -7 4.68 -7 4 C-6.030625 3.525625 -5.06125 3.05125 -4.0625 2.5625 C-1.19522563 1.29806053 -1.19522563 1.29806053 0 0 Z " fill="#744EEA" transform="translate(397,309)"/>
<path d="M0 0 C0.66 0.66 1.32 1.32 2 2 C0.02 3.32 -1.96 4.64 -4 6 C-4 5.01 -4 4.02 -4 3 C-2 1.3125 -2 1.3125 0 0 Z " fill="#805BEB" transform="translate(316,314)"/>
</svg>
